HIERARCHY
ROOT Pelvis
{
	OFFSET 0.000000 0.000000 0.000000
	CHANNELS 6 Xposition Yposition Zposition Xrotation Yrotation Zrotation
	JOINT LeftUpLeg_virtual
	{
		OFFSET 0.000000 0.000000 0.000000
		CHANNELS 3 Xrotation Yrotation Zrotation
		JOINT LeftUpLeg
		{
			OFFSET 8.479700 -4.795502 -0.379100
			CHANNELS 3 Xrotation Yrotation Zrotation
			JOINT LeftLeg
			{
				OFFSET 0.024144 -32.555107 0.112900
				CHANNELS 3 Xrotation Yrotation Zrotation
				JOINT LeftFoot
				{
					OFFSET -0.024144 -32.638630 -3.012600
					CHANNELS 3 Xrotation Yrotation Zrotation
					JOINT LeftToeBase
					{
						OFFSET 0.970200 -13.225400 11.864200
						CHANNELS 3 Xrotation Yrotation Zrotation
						End Site
						{
							OFFSET 0 0 0
						}
					}
				}
			}
		}
	}
	JOINT RightUpLeg_virtual
	{
		OFFSET 0.000000 0.000000 0.000000
		CHANNELS 3 Xrotation Yrotation Zrotation
		JOINT RightUpLeg
		{
			OFFSET -8.479700 -4.795502 -0.379100
			CHANNELS 3 Xrotation Yrotation Zrotation
			JOINT RightLeg
			{
				OFFSET -0.023144 -32.555092 0.112900
				CHANNELS 3 Xrotation Yrotation Zrotation
				JOINT RightFoot
				{
					OFFSET 0.023144 -32.638641 -3.012700
					CHANNELS 3 Xrotation Yrotation Zrotation
					JOINT RightToeBase
					{
						OFFSET -0.970200 -13.225400 11.864200
						CHANNELS 3 Xrotation Yrotation Zrotation
						End Site
						{
							OFFSET 0 0 0
						}
					}
				}
			}
		}
	}
	JOINT Hips_virtual
	{
		OFFSET 0.000000 0.000000 0.000000
		CHANNELS 3 Xrotation Yrotation Zrotation
		JOINT Hips
		{
			OFFSET -0.000000 -0.000000 -0.000000
			CHANNELS 3 Xrotation Yrotation Zrotation
			JOINT Spine
			{
				OFFSET 0.000000 7.722000 1.166200
				CHANNELS 3 Xrotation Yrotation Zrotation
				JOINT Spine1
				{
					OFFSET 0.000000 12.024101 0.248800
					CHANNELS 3 Xrotation Yrotation Zrotation
					JOINT Spine2
					{
						OFFSET 0.000000 11.502998 -0.491200
						CHANNELS 3 Xrotation Yrotation Zrotation
						JOINT Neck_virtual
						{
							OFFSET 0.000000 0.000000 0.000000
							CHANNELS 3 Xrotation Yrotation Zrotation
							JOINT Neck
							{
								OFFSET 0.000000 18.430702 -3.123100
								CHANNELS 3 Xrotation Yrotation Zrotation
								JOINT Head
								{
									OFFSET 0.000000 9.051102 1.034000
									CHANNELS 3 Xrotation Yrotation Zrotation
									End Site
									{
										OFFSET 0 0 0
									}
								}
							}
						}
						JOINT LeftShoulder_virtual
						{
							OFFSET 0.000000 0.000000 0.000000
							CHANNELS 3 Xrotation Yrotation Zrotation
							JOINT LeftShoulder
							{
								OFFSET 6.197800 13.665199 -4.064700
								CHANNELS 3 Xrotation Yrotation Zrotation
								JOINT LeftArm
								{
									OFFSET 7.778100 -0.187103 -1.709300
									CHANNELS 3 Xrotation Yrotation Zrotation
									JOINT LeftForeArm
									{
										OFFSET 22.049376 0.000000 0.000000
										CHANNELS 3 Xrotation Yrotation Zrotation
										JOINT LeftHand
										{
											OFFSET 23.009392 0.000000 0.000000
											CHANNELS 3 Xrotation Yrotation Zrotation
											End Site
											{
												OFFSET 0 0 0
											}
										}
									}
								}
							}
						}
						JOINT RightShoulder_virtual
						{
							OFFSET 0.000000 0.000000 0.000000
							CHANNELS 3 Xrotation Yrotation Zrotation
							JOINT RightShoulder
							{
								OFFSET -6.197800 13.665199 -4.064700
								CHANNELS 3 Xrotation Yrotation Zrotation
								JOINT RightArm
								{
									OFFSET -7.778100 -0.187103 -1.709300
									CHANNELS 3 Xrotation Yrotation Zrotation
									JOINT RightForeArm
									{
										OFFSET -22.049376 0.000000 0.000000
										CHANNELS 3 Xrotation Yrotation Zrotation
										JOINT RightHand
										{
											OFFSET -23.009392 0.000000 0.000000
											CHANNELS 3 Xrotation Yrotation Zrotation
											End Site
											{
												OFFSET 0 0 0
											}
										}
									}
								}
							}
						}
					}
				}
			}
		}
	}
}
MOTION
Frames: 13
Frame Time: 0.03333333
0.118895 9.570503 -3.486702 0.000000 0.000000 0.000000 -86.966695 -3.536506 -0.022074 -24.843754 15.407901 -6.726716 25.068625 -6.830708 -9.544737 0.588675 9.446970 7.426819 0.000000 0.000000 0.000000 -86.966695 -3.536506 -0.022074 -6.228085 -10.283608 -1.243758 1.780417 -9.775853 4.862711 16.259175 -3.877102 27.309991 0.000000 0.000000 0.000000 -86.966695 -3.536506 -0.022074 0.000000 0.000000 0.000000 0.078014 1.994083 -2.409814 -2.894329 0.722157 -0.032029 0.000000 0.000000 0.000000 -2.892139 0.750137 -0.008814 4.260105 0.456928 0.133952 0.000000 0.000000 0.000000 -2.892139 0.750137 -0.008814 1.575207 -15.462657 -0.386114 21.370847 -1.052516 -73.139141 -179.999964 -42.441549 -179.999964 0.000000 0.000000 0.000000 -2.892139 0.750137 -0.008814 0.537274 6.692242 0.071573 17.297888 6.543547 66.743686 180.000005 47.031959 180.000005 0.000000 0.000000 0.000000 
0.118315 9.571896 -3.482468 0.000000 0.000000 0.000000 -86.972658 -3.537637 -0.024634 -24.853136 15.408254 -6.718744 25.098987 -6.830710 -9.548160 0.574089 9.425007 7.430482 0.000000 0.000000 0.000000 -86.972658 -3.537637 -0.024634 -6.219043 -10.283325 -1.240942 1.782340 -9.778526 4.862720 16.217528 -3.872726 27.326139 0.000000 0.000000 0.000000 -86.972658 -3.537637 -0.024634 0.000000 0.000000 0.000000 0.082317 1.984359 -2.400270 -2.899775 0.719093 -0.031225 0.000000 0.000000 0.000000 -2.897565 0.747077 -0.008094 4.272381 0.440566 0.143374 0.000000 0.000000 0.000000 -2.897565 0.747077 -0.008094 1.572098 -15.451421 -0.406929 21.322445 -0.990315 -73.108391 -179.999991 -42.351100 179.999991 0.000000 0.000000 0.000000 -2.897565 0.747077 -0.008094 0.542307 6.731886 0.071285 17.280944 6.510336 66.772804 179.999991 47.019627 179.999991 0.000000 0.000000 0.000000 
0.118264 9.573341 -3.478111 0.000000 0.000000 0.000000 -86.978682 -3.537286 -0.027463 -24.862070 15.408639 -6.711264 25.129314 -6.830312 -9.551703 0.559584 9.401954 7.434742 0.000000 0.000000 0.000000 -86.978682 -3.537286 -0.027463 -6.210034 -10.283435 -1.238753 1.785086 -9.782155 4.863203 16.174685 -3.868451 27.343540 0.000000 0.000000 0.000000 -86.978682 -3.537286 -0.027463 0.000000 0.000000 0.000000 0.089135 1.974875 -2.389356 -2.905660 0.716116 -0.029207 0.000000 0.000000 0.000000 -2.903448 0.744093 -0.006157 4.284334 0.424950 0.153656 0.000000 0.000000 0.000000 -2.903448 0.744093 -0.006157 1.568777 -15.437783 -0.427668 21.271666 -0.938651 -73.080005 179.999978 -42.282255 179.999978 0.000000 0.000000 0.000000 -2.903448 0.744093 -0.006157 0.546428 6.771664 0.070983 17.268882 6.484036 66.804236 -179.999991 47.003982 -179.999991 0.000000 0.000000 0.000000 
0.118682 9.574688 -3.473778 0.000000 0.000000 0.000000 -86.984426 -3.535379 -0.030423 -24.870449 15.409026 -6.704456 25.158346 -6.829530 -9.555285 0.546086 9.377919 7.439598 0.000000 0.000000 0.000000 -86.984426 -3.535379 -0.030423 -6.201829 -10.283813 -1.237214 1.788915 -9.786076 4.864041 16.130542 -3.864884 27.362248 0.000000 0.000000 0.000000 -86.984426 -3.535379 -0.030423 0.000000 0.000000 0.000000 0.097507 1.966627 -2.378785 -2.910619 0.713544 -0.026432 0.000000 0.000000 0.000000 -2.908357 0.741506 -0.003458 4.294644 0.409459 0.165082 0.000000 0.000000 0.000000 -2.908357 0.741506 -0.003458 1.565689 -15.422391 -0.445049 21.221007 -0.901437 -73.058299 -179.999991 -42.246383 -179.999978 0.000000 0.000000 0.000000 -2.908357 0.741506 -0.003458 0.549133 6.804088 0.070728 17.259755 6.469271 66.833101 -179.999978 46.986770 179.999978 0.000000 0.000000 0.000000 
0.119520 9.575809 -3.469574 0.000000 0.000000 0.000000 -86.989358 -3.532226 -0.033366 -24.878496 15.409588 -6.698494 25.185278 -6.828465 -9.558897 0.534879 9.353012 7.445348 0.000000 0.000000 0.000000 -86.989358 -3.532226 -0.033366 -6.193121 -10.284343 -1.235953 1.789936 -9.790672 4.865074 16.087221 -3.861870 27.381764 0.000000 0.000000 0.000000 -86.989358 -3.532226 -0.033366 0.000000 0.000000 0.000000 0.105719 1.960645 -2.370122 -2.913438 0.711701 -0.023268 0.000000 0.000000 0.000000 -2.911162 0.739642 -0.000360 4.302273 0.393575 0.177342 0.000000 0.000000 0.000000 -2.911162 0.739642 -0.000360 1.562940 -15.406455 -0.458464 21.172523 -0.881060 -73.043587 -179.999991 -42.250317 -179.999964 0.000000 0.000000 0.000000 -2.911162 0.739642 -0.000360 0.549910 6.822527 0.070579 17.251576 6.468505 66.853892 179.999991 46.969602 179.999991 0.000000 0.000000 0.000000 
0.120743 9.576668 -3.465569 0.000000 0.000000 0.000000 -86.993019 -3.528157 -0.036164 -24.886610 15.410397 -6.693348 25.209620 -6.827367 -9.562553 0.526684 9.327383 7.452238 0.000000 0.000000 0.000000 -86.993019 -3.528157 -0.036164 -6.186837 -10.285046 -1.235366 1.792458 -9.794792 4.866287 16.042897 -3.859834 27.402092 0.000000 0.000000 0.000000 -86.993019 -3.528157 -0.036164 0.000000 0.000000 0.000000 0.112052 1.957866 -2.364398 -2.913375 0.710866 -0.020000 0.000000 0.000000 0.000000 -2.911087 0.738785 0.002854 4.306731 0.376948 0.189636 0.000000 0.000000 0.000000 -2.911087 0.738785 0.002854 1.560523 -15.391391 -0.469535 21.128137 -0.878643 -73.032802 179.999978 -42.295438 179.999991 0.000000 0.000000 0.000000 -2.911087 0.738785 0.002854 0.548350 6.822700 0.070563 17.242898 6.481576 66.861842 -179.999991 46.953814 179.999978 0.000000 0.000000 0.000000 
0.122336 9.577240 -3.461769 0.000000 0.000000 0.000000 -86.994897 -3.523627 -0.038644 -24.895126 15.411617 -6.689147 25.230982 -6.826571 -9.566223 0.522154 9.301188 7.460586 0.000000 0.000000 0.000000 -86.994897 -3.523627 -0.038644 -6.182038 -10.285815 -1.235228 1.793641 -9.798968 4.867487 15.999080 -3.858169 27.422427 0.000000 0.000000 0.000000 -86.994897 -3.523627 -0.038644 0.000000 0.000000 0.000000 0.114873 1.958918 -2.361970 -2.910270 0.711200 -0.016909 0.000000 0.000000 0.000000 -2.907918 0.739097 0.005911 4.308065 0.359420 0.201004 0.000000 0.000000 0.000000 -2.907918 0.739097 0.005911 1.558241 -15.378185 -0.480683 21.089464 -0.893917 -73.021266 -179.999978 -42.377308 -179.999991 0.000000 0.000000 0.000000 -2.907918 0.739097 0.005911 0.544296 6.803499 0.070690 17.232957 6.505899 66.854479 -179.999964 46.940175 179.999950 0.000000 0.000000 0.000000 
0.124250 9.577568 -3.458183 0.000000 0.000000 0.000000 -86.994685 -3.519011 -0.040708 -24.904647 15.413338 -6.685825 25.249700 -6.826464 -9.569868 0.521464 9.274621 7.470714 0.000000 0.000000 0.000000 -86.994685 -3.519011 -0.040708 -6.179565 -10.286569 -1.235580 1.794486 -9.803189 4.868610 15.955532 -3.856629 27.442300 0.000000 0.000000 0.000000 -86.994685 -3.519011 -0.040708 0.000000 0.000000 0.000000 0.113492 1.963890 -2.362404 -2.904507 0.712676 -0.014314 0.000000 0.000000 0.000000 -2.902086 0.740548 0.008495 4.306748 0.341049 0.210716 0.000000 0.000000 0.000000 -2.902086 0.740548 0.008495 1.555964 -15.366975 -0.493583 21.057649 -0.924810 -73.005133 180.000005 -42.486461 -179.999991 0.000000 0.000000 0.000000 -2.902086 0.740548 0.008495 0.538081 6.767178 0.070941 17.221820 6.537268 66.832486 179.999978 46.928925 -179.999978 0.000000 0.000000 0.000000 
0.126356 9.577755 -3.454712 0.000000 0.000000 0.000000 -86.992540 -3.514494 -0.042269 -24.915253 15.415602 -6.683307 25.266176 -6.827440 -9.573484 0.524276 9.247922 7.482706 0.000000 0.000000 0.000000 -86.992540 -3.514494 -0.042269 -6.179995 -10.287186 -1.236472 1.796227 -9.807409 4.869552 15.911660 -3.855076 27.461435 0.000000 0.000000 0.000000 -86.992540 -3.514494 -0.042269 0.000000 0.000000 0.000000 0.107605 1.972093 -2.364645 -2.897047 0.715026 -0.012523 0.000000 0.000000 0.000000 -2.894589 0.742869 0.010297 4.303665 0.322106 0.218545 0.000000 0.000000 0.000000 -2.894589 0.742869 0.010297 1.553615 -15.356909 -0.508184 21.032908 -0.966727 -72.983501 -179.999991 -42.609626 -179.999978 0.000000 0.000000 0.000000 -2.894589 0.742869 0.010297 0.530464 6.719220 0.071271 17.210366 6.570829 66.799796 179.999950 46.920025 -179.999964 0.000000 0.000000 0.000000 
0.128451 9.577911 -3.451242 0.000000 0.000000 0.000000 -86.988907 -3.510126 -0.043238 -24.927026 15.418377 -6.681411 25.281619 -6.829859 -9.577080 0.529623 9.221328 7.496532 0.000000 0.000000 0.000000 -86.988907 -3.510126 -0.043238 -6.181918 -10.287557 -1.237677 1.797430 -9.811967 4.870245 15.867969 -3.853320 27.479548 0.000000 0.000000 0.000000 -86.988907 -3.510126 -0.043238 0.000000 0.000000 0.000000 0.098077 1.981955 -2.367242 -2.889171 0.717741 -0.011703 0.000000 0.000000 0.000000 -2.886726 0.745554 0.011144 4.299733 0.303045 0.224810 0.000000 0.000000 0.000000 -2.886726 0.745554 0.011144 1.551247 -15.346544 -0.522817 21.014045 -1.012217 -72.959159 180.000005 -42.731282 -179.999991 0.000000 0.000000 0.000000 -2.886726 0.745554 0.011144 0.522534 6.667664 0.071621 17.199880 6.601849 66.763057 -179.999978 46.912970 179.999978 0.000000 0.000000 0.000000 
0.130309 9.578194 -3.447609 0.000000 0.000000 0.000000 -86.984392 -3.505941 -0.043587 -24.940053 15.421602 -6.679867 25.297825 -6.833977 -9.580644 0.535708 9.195011 7.511804 0.000000 0.000000 0.000000 -86.984392 -3.505941 -0.043587 -6.184518 -10.287613 -1.239066 1.798347 -9.816800 4.870648 15.824058 -3.851519 27.496846 0.000000 0.000000 0.000000 -86.984392 -3.505941 -0.043587 0.000000 0.000000 0.000000 0.086467 1.991213 -2.368726 -2.882399 0.720155 -0.011737 0.000000 0.000000 0.000000 -2.879938 0.747935 0.011135 4.296110 0.284453 0.230185 0.000000 0.000000 0.000000 -2.879938 0.747935 0.011135 1.548941 -15.334463 -0.535305 20.998701 -1.052067 -72.937261 -179.999991 -42.836211 179.999991 0.000000 0.000000 0.000000 -2.879938 0.747935 0.011135 0.515364 6.621872 0.071923 17.191561 6.626302 66.730122 179.999991 46.906932 -179.999991 0.000000 0.000000 0.000000 
0.131784 9.578751 -3.443657 0.000000 0.000000 0.000000 -86.979563 -3.502096 -0.043437 -24.954412 15.425168 -6.678225 25.316110 -6.839969 -9.584215 0.541383 9.169142 7.527820 0.000000 0.000000 0.000000 -86.979563 -3.502096 -0.043437 -6.187884 -10.287406 -1.240535 1.800408 -9.821366 4.870740 15.778912 -3.850131 27.513867 0.000000 0.000000 0.000000 -86.979563 -3.502096 -0.043437 0.000000 0.000000 0.000000 0.074605 1.997469 -2.367865 -2.877950 0.721608 -0.012196 0.000000 0.000000 0.000000 -2.875481 0.749359 0.010689 4.293888 0.266926 0.235374 0.000000 0.000000 0.000000 -2.875481 0.749359 0.010689 1.546778 -15.319894 -0.544356 20.983622 -1.077411 -72.922761 179.999991 -42.911504 -179.999991 0.000000 0.000000 0.000000 -2.875481 0.749359 0.010689 0.509774 6.590587 0.072117 17.186160 6.641301 66.708067 -179.999950 46.900925 179.999964 0.000000 0.000000 0.000000 
0.132839 9.579678 -3.439301 0.000000 0.000000 0.000000 -86.974912 -3.498843 -0.043040 -24.970154 15.428986 -6.676084 25.337417 -6.848005 -9.587795 0.545637 9.143902 7.543660 0.000000 0.000000 0.000000 -86.974912 -3.498843 -0.043040 -6.191056 -10.286956 -1.241709 1.802826 -9.825365 4.870489 15.732671 -3.849421 27.531372 0.000000 0.000000 0.000000 -86.974912 -3.498843 -0.043040 0.000000 0.000000 0.000000 0.064426 1.998923 -2.363970 -2.876566 0.721651 -0.012450 0.000000 0.000000 0.000000 -2.874068 0.749376 0.010418 4.293923 0.250941 0.240857 0.000000 0.000000 0.000000 -2.874068 0.749376 0.010418 1.544697 -15.302916 -0.550515 20.965491 -1.082146 -72.918089 179.999991 -42.949524 -179.999991 0.000000 0.000000 0.000000 -2.874068 0.749376 0.010418 0.506183 6.579729 0.072165 17.183771 6.645456 66.701449 -179.999978 46.893961 179.999978 0.000000 0.000000 0.000000 
